<?xml version="1.0" encoding="UTF-8" standalone="no"?>
<svg
   width="16"
   height="16"
   version="1.1"
   id="svg1"
   sodipodi:docname="Statescript.svg"
   inkscape:version="1.3.2 (091e20e, 2023-11-25, custom)"
   xmlns:inkscape="http://www.inkscape.org/namespaces/inkscape"
   xmlns:sodipodi="http://sodipodi.sourceforge.net/DTD/sodipodi-0.dtd"
   xmlns="http://www.w3.org/2000/svg"
   xmlns:svg="http://www.w3.org/2000/svg">
  <defs
     id="defs1" />
  <sodipodi:namedview
     id="namedview1"
     pagecolor="#505050"
     bordercolor="#eeeeee"
     borderopacity="1"
     inkscape:showpageshadow="0"
     inkscape:pageopacity="0"
     inkscape:pagecheckerboard="0"
     inkscape:deskcolor="#505050"
     inkscape:zoom="77.4375"
     inkscape:cx="7.9935432"
     inkscape:cy="8"
     inkscape:window-width="2560"
     inkscape:window-height="1417"
     inkscape:window-x="3432"
     inkscape:window-y="-8"
     inkscape:window-maximized="1"
     inkscape:current-layer="svg1" />
  <path
     d="m 11,10 a 1,1 0 0 0 -1,1 v 3 a 1,1 0 0 0 1,1 h 3 a 1,1 0 0 0 1,-1 v -3 a 1,1 0 0 0 -1,-1 z"
     id="path5"
     style="fill:#8eef97;fill-opacity:1" />
  <path
     d="M 7,8.883 V 10 A 2,2 0 0 1 6.732,11 L 9,12.117 V 11 a 2,2 0 0 1 0.268,-1 z"
     id="path4"
     style="fill:#d2d3d5;fill-opacity:1" />
  <path
     d="M 2,5 A 1,1 0 0 0 1,6 v 4 a 1,1 0 0 0 1,1 H 5 A 1,1 0 0 0 6,10 V 6 A 1,1 0 0 0 5,5 Z"
     id="path3"
     style="fill:#8da5f3;fill-opacity:1" />
  <path
     d="M 6.732,5 A 2,2 0 0 1 7,6 V 7.117 L 9.268,6 A 2,2 0 0 1 9,5 V 3.883 Z"
     id="path2"
     style="fill:#d2d3d5;fill-opacity:1" />
  <path
     d="m 11,1 a 1,1 0 0 0 -1,1 v 3 a 1,1 0 0 0 1,1 h 3 A 1,1 0 0 0 15,5 V 2 A 1,1 0 0 0 14,1 Z"
     id="path1"
     style="fill:#fc7f7f;fill-opacity:1" />
</svg>
