<?xml version="1.0" encoding="UTF-8" standalone="no"?>
<svg
   width="128"
   height="128"
   version="1.1"
   id="svg6"
   sodipodi:docname="icon.svg"
   inkscape:version="1.3.2 (091e20e, 2023-11-25, custom)"
   xml:space="preserve"
   xmlns:inkscape="http://www.inkscape.org/namespaces/inkscape"
   xmlns:sodipodi="http://sodipodi.sourceforge.net/DTD/sodipodi-0.dtd"
   xmlns="http://www.w3.org/2000/svg"
   xmlns:svg="http://www.w3.org/2000/svg"><defs
     id="defs6" /><sodipodi:namedview
     id="namedview6"
     pagecolor="#505050"
     bordercolor="#eeeeee"
     borderopacity="1"
     inkscape:showpageshadow="0"
     inkscape:pageopacity="0"
     inkscape:pagecheckerboard="0"
     inkscape:deskcolor="#505050"
     inkscape:zoom="3.3725679"
     inkscape:cx="107.92963"
     inkscape:cy="73.979236"
     inkscape:window-width="3407"
     inkscape:window-height="1417"
     inkscape:window-x="25"
     inkscape:window-y="-8"
     inkscape:window-maximized="1"
     inkscape:current-layer="svg6" /><rect
     width="124"
     height="124"
     x="2"
     y="2"
     fill="#363d52"
     stroke="#212532"
     stroke-width="4"
     rx="14"
     id="rect1"
     sodipodi:insensitive="true" /><g
     id="layer1"
     transform="matrix(24.230466,0,0,24.230466,11.078059,16.799902)"
     style="display:none"
     sodipodi:insensitive="true"><path
       style="fill:#b2b2c0;fill-opacity:1;stroke:#1a1a1a;stroke-width:0.206352;stroke-linecap:round;stroke-linejoin:round;stroke-dasharray:none;stroke-dashoffset:0;stroke-opacity:1;paint-order:markers fill stroke"
       d="M 1.5551745,0.96467593 4.1685694,0.98221542 4.1627221,1.4674766 3.4494464,1.6077932 2.8881805,2.0813613 V 2.5081574 L 3.1688135,2.7770973 3.6248422,3.098656 V 3.3208237 L 2.9934185,3.3383635 2.6426274,3.098656 2.0872079,3.07527 1.7364167,3.3149772 H 1.1576111 L 1.1693042,3.07527 1.6019467,2.7595578 1.8825797,2.5081574 V 2.256757 L 1.5785606,1.9819706 1.0172946,1.964431 0.42679601,1.5785606 0.06431173,1.0757598 H 1.5434815 Z"
       id="path2-8" /></g><g
     inkscape:groupmode="layer"
     id="layer2"
     inkscape:label="Layer 1"><path
       style="fill:#000000;stroke:#323232;stroke-width:1;stroke-linecap:round;stroke-linejoin:round;paint-order:markers fill stroke;stroke-opacity:1;stroke-dasharray:none"
       d="M 47.960688,35.747747 V 69.241605"
       id="path1" /><path
       style="fill:#000000;stroke:#323232;stroke-width:1;stroke-linecap:round;stroke-linejoin:round;stroke-dasharray:none;stroke-opacity:1;paint-order:markers fill stroke"
       d="M 47.960688,40.255528 H 116.36364"
       id="path2" /><path
       style="fill:#000000;stroke:#323232;stroke-width:1;stroke-linecap:round;stroke-linejoin:round;stroke-dasharray:none;stroke-opacity:1;paint-order:markers fill stroke"
       d="M 80.301392,67.092546 116.2588,36.11466"
       id="path3" /><path
       style="fill:#000000;stroke:#323232;stroke-width:1;stroke-linecap:round;stroke-linejoin:round;stroke-dasharray:none;stroke-opacity:1;paint-order:markers fill stroke"
       d="M 123.38739,49.480753 39.993448,66.463554"
       id="path4" /><path
       style="fill:#000000;stroke:#323232;stroke-width:1;stroke-linecap:round;stroke-linejoin:round;stroke-dasharray:none;stroke-opacity:1;paint-order:markers fill stroke"
       d="M 111.17445,40.570024 V 51.891891"
       id="path5" /><path
       style="fill:#000000;stroke:#323232;stroke-width:1;stroke-linecap:round;stroke-linejoin:round;stroke-dasharray:none;stroke-opacity:1;paint-order:markers fill stroke"
       d="M 37.844389,39.469287 106.7715,59.597051"
       id="path6" /><path
       style="fill:#000000;stroke:#323232;stroke-width:1;stroke-linecap:round;stroke-linejoin:round;stroke-dasharray:none;stroke-opacity:1;paint-order:markers fill stroke"
       d="M 3.7215397,42.823914 H 47.698607"
       id="path7" /><path
       style="fill:#000000;stroke:#323232;stroke-width:1;stroke-linecap:round;stroke-linejoin:round;stroke-dasharray:none;stroke-opacity:1;paint-order:markers fill stroke"
       d="M 9.2252251,39.312039 20.389844,54.984438"
       id="path8" /><path
       style="fill:#000000;stroke:#323232;stroke-width:1;stroke-linecap:round;stroke-linejoin:round;stroke-dasharray:none;stroke-opacity:1;paint-order:markers fill stroke"
       d="M 48.117936,64.628992 H 34.594594"
       id="path9" /><path
       style="fill:#000000;stroke:#323232;stroke-width:1;stroke-linecap:round;stroke-linejoin:round;stroke-dasharray:none;stroke-opacity:1;paint-order:markers fill stroke"
       d="M 34.751842,64.628992 20.44226,55.036855"
       id="path10" /><path
       style="fill:#000000;stroke:#323232;stroke-width:1;stroke-linecap:round;stroke-linejoin:round;stroke-dasharray:none;stroke-opacity:1;paint-order:markers fill stroke"
       d="M 16.301392,56.714168 47.698607,42.823914"
       id="path11" /><path
       style="fill:#000000;stroke:#323232;stroke-width:1;stroke-linecap:round;stroke-linejoin:round;stroke-dasharray:none;stroke-opacity:1;paint-order:markers fill stroke"
       d="M 30.610974,70.866502 47.908271,42.981163"
       id="path12" /><path
       style="fill:#000000;stroke:#323232;stroke-width:1;stroke-linecap:round;stroke-linejoin:round;stroke-dasharray:none;stroke-opacity:1;paint-order:markers fill stroke"
       d="M 95.030302,68.874692 48.117936,64.471744"
       id="path13" /><path
       style="fill:#000000;stroke:#323232;stroke-width:1;stroke-linecap:round;stroke-linejoin:round;stroke-dasharray:none;stroke-opacity:1;paint-order:markers fill stroke"
       d="M 45.864045,72.910728 80.196559,67.302211"
       id="path14" /><path
       style="fill:#000000;stroke:#323232;stroke-width:1;stroke-linecap:round;stroke-linejoin:round;stroke-dasharray:none;stroke-opacity:1;paint-order:markers fill stroke"
       d="m 48.484848,64.628992 7.128583,6.552007"
       id="path15" /><path
       style="fill:#000000;stroke:#323232;stroke-width:1;stroke-linecap:round;stroke-linejoin:round;stroke-dasharray:none;stroke-opacity:1;paint-order:markers fill stroke"
       d="M 80.039311,77.628173 55.718263,71.233415"
       id="path16" /><path
       style="fill:#000000;stroke:#323232;stroke-width:1;stroke-linecap:round;stroke-linejoin:round;stroke-dasharray:none;stroke-opacity:1;paint-order:markers fill stroke"
       d="M 80.091727,67.407043 V 77.470925"
       id="path17" /><path
       style="fill:#000000;stroke:#323232;stroke-width:1;stroke-linecap:round;stroke-linejoin:round;stroke-dasharray:none;stroke-opacity:1;paint-order:markers fill stroke"
       d="M 85.438165,77.523341 H 50.738738"
       id="path18" /><path
       style="fill:#000000;stroke:#323232;stroke-width:1;stroke-linecap:round;stroke-linejoin:round;stroke-dasharray:none;stroke-opacity:1;paint-order:markers fill stroke"
       d="m 55.508599,71.547911 v 5.870598"
       id="path19" /><path
       style="fill:#000000;stroke:#323232;stroke-width:1;stroke-linecap:round;stroke-linejoin:round;stroke-dasharray:none;stroke-opacity:1;paint-order:markers fill stroke"
       d="m 48.694512,84.022931 6.604423,-6.447174"
       id="path20" /><path
       style="fill:#000000;stroke:#323232;stroke-width:1;stroke-linecap:round;stroke-linejoin:round;stroke-dasharray:none;stroke-opacity:1;paint-order:markers fill stroke"
       d="m 38.578214,91.623259 10.168714,-7.70516"
       id="path21" /><path
       style="fill:#000000;stroke:#323232;stroke-width:1;stroke-linecap:round;stroke-linejoin:round;stroke-dasharray:none;stroke-opacity:1;paint-order:markers fill stroke"
       d="M 38.473382,85.385749 V 97.074528"
       id="path22" /><path
       style="fill:#000000;stroke:#323232;stroke-width:1;stroke-linecap:round;stroke-linejoin:round;stroke-dasharray:none;stroke-opacity:1;paint-order:markers fill stroke"
       d="M 32.13104,97.336608 H 51.891891"
       id="path23" /><path
       style="fill:#000000;stroke:#323232;stroke-width:1;stroke-linecap:round;stroke-linejoin:round;stroke-dasharray:none;stroke-opacity:1;paint-order:markers fill stroke"
       d="M 79.829647,77.575757 51.944307,97.336608"
       id="path24" /><path
       style="fill:#000000;stroke:#323232;stroke-width:1;stroke-linecap:round;stroke-linejoin:round;stroke-dasharray:none;stroke-opacity:1;paint-order:markers fill stroke"
       d="M 60.27846,91.518427 H 74.273546"
       id="path25" /><path
       style="fill:#000000;stroke:#323232;stroke-width:1;stroke-linecap:round;stroke-linejoin:round;stroke-dasharray:none;stroke-opacity:1;paint-order:markers fill stroke"
       d="M 91.466011,103.04996 74.063881,91.675675"
       id="path26" /><path
       style="fill:#000000;stroke:#323232;stroke-width:1;stroke-linecap:round;stroke-linejoin:round;stroke-dasharray:none;stroke-opacity:1;paint-order:markers fill stroke"
       d="M 102.68305,97.231776 H 82.660114"
       id="path27" /><path
       style="fill:#000000;stroke:#323232;stroke-width:1;stroke-linecap:round;stroke-linejoin:round;stroke-dasharray:none;stroke-opacity:1;paint-order:markers fill stroke"
       d="M 97.808353,97.284192 V 91.780507"
       id="path28" /><path
       style="fill:#000000;stroke:#323232;stroke-width:1;stroke-linecap:round;stroke-linejoin:round;stroke-dasharray:none;stroke-opacity:1;paint-order:markers fill stroke"
       d="m 86.748566,84.075347 11.164619,7.652744"
       id="path29" /><path
       style="fill:#000000;stroke:#323232;stroke-width:1;stroke-linecap:round;stroke-linejoin:round;stroke-dasharray:none;stroke-opacity:1;paint-order:markers fill stroke"
       d="m 80.144143,77.575757 6.761671,6.552006"
       id="path30" /><path
       style="fill:#000000;stroke:#323232;stroke-width:1;stroke-linecap:round;stroke-linejoin:round;stroke-dasharray:none;stroke-opacity:1;paint-order:markers fill stroke"
       d="M 74.116297,91.570843 80.039311,77.733005"
       id="path31" /><path
       style="fill:#000000;stroke:#323232;stroke-width:1;stroke-linecap:round;stroke-linejoin:round;stroke-dasharray:none;stroke-opacity:1;paint-order:markers fill stroke"
       d="M 55.561015,77.470925 60.54054,91.361178"
       id="path32" /><path
       style="fill:#000000;stroke:#323232;stroke-width:1;stroke-linecap:round;stroke-linejoin:round;stroke-dasharray:none;stroke-opacity:1;paint-order:markers fill stroke"
       d="m 44.920556,81.454545 15.567568,9.854217"
       id="path33" /><path
       style="fill:#000000;stroke:#323232;stroke-width:1;stroke-linecap:round;stroke-linejoin:round;stroke-dasharray:none;stroke-opacity:1;paint-order:markers fill stroke"
       d="m 48.746928,83.970515 4.665029,18.922195"
       id="path34" /><path
       style="fill:#000000;stroke:#323232;stroke-width:1;stroke-linecap:round;stroke-linejoin:round;stroke-dasharray:none;stroke-opacity:1;paint-order:markers fill stroke"
       d="M 52.04914,97.336608 32.13104,89.21212"
       id="path35" /><path
       style="fill:#000000;stroke:#323232;stroke-width:1;stroke-linecap:round;stroke-linejoin:round;stroke-dasharray:none;stroke-opacity:1;paint-order:markers fill stroke"
       d="M 80.563472,103.46929 86.69615,84.022931"
       id="path36" /><path
       style="fill:#000000;stroke:#323232;stroke-width:1;stroke-linecap:round;stroke-linejoin:round;stroke-dasharray:none;stroke-opacity:1;paint-order:markers fill stroke"
       d="M 95.764127,78.938574 74.273546,91.623259"
       id="path37" /><path
       style="fill:#000000;stroke:#323232;stroke-width:1;stroke-linecap:round;stroke-linejoin:round;stroke-dasharray:none;stroke-opacity:1;paint-order:markers fill stroke"
       d="M 82.764946,97.17936 103.73137,89.474201"
       id="path38" /></g><path
     style="fill:#6d6e72;stroke:#6d6e72;stroke-width:0.148255;stroke-linecap:round;stroke-linejoin:round;stroke-dasharray:none;stroke-opacity:1;paint-order:markers fill stroke;fill-opacity:1"
     d="m 52.890403,67.941745 c -1.610179,-1.477145 -2.911116,-2.699394 -2.890972,-2.716108 0.05225,-0.04336 24.527608,2.264726 24.729611,2.33206 0.173092,0.0577 -18.293098,3.102596 -18.688658,3.081582 -0.122311,-0.0065 -1.539802,-1.220388 -3.149981,-2.697534 z"
     id="path42" /><path
     style="fill:#6d6e72;fill-opacity:1;stroke:#6d6e72;stroke-width:0.148255;stroke-linecap:round;stroke-linejoin:round;stroke-dasharray:none;stroke-opacity:1;paint-order:markers fill stroke"
     d="m 80.576583,95.278559 c -0.815402,-0.544884 -2.367806,-1.563527 -3.449787,-2.263652 l -1.967237,-1.272955 5.154719,-3.044551 c 2.835096,-1.674504 5.177789,-3.023932 5.205986,-2.998729 0.0282,0.0252 -0.630812,2.202101 -1.464464,4.837552 -0.833651,2.635452 -1.57704,5.008553 -1.651975,5.273559 -0.07494,0.265005 -0.183147,0.476799 -0.240469,0.470651 -0.05732,-0.0061 -0.77137,-0.456991 -1.586773,-1.001875 z"
     id="path43" /><path
     style="fill:#6d6e72;fill-opacity:1;stroke:#6d6e72;stroke-width:0.148255;stroke-linecap:round;stroke-linejoin:round;stroke-dasharray:none;stroke-opacity:1;paint-order:markers fill stroke"
     d="m 85.85199,96.675669 c 0.0589,-0.05789 4.081621,-1.55718 7.400394,-2.758174 0.856173,-0.309831 2.107074,-0.768018 2.779781,-1.018192 l 1.223104,-0.454863 v 2.145968 2.145968 h -5.732526 c -3.152889,0 -5.704728,-0.02732 -5.670753,-0.06071 z"
     id="path44" /><path
     style="fill:#818286;fill-opacity:1;stroke:#6d6e72;stroke-width:0.148255;stroke-linecap:round;stroke-linejoin:round;stroke-dasharray:none;stroke-opacity:1;paint-order:markers fill stroke"
     d="m 65.973467,65.602711 c -6.645529,-0.633975 -12.243522,-1.176839 -12.439983,-1.206365 -0.196462,-0.02953 8.266633,-1.809064 18.806877,-3.954528 10.540243,-2.145465 19.185486,-3.879438 19.211651,-3.853273 0.02616,0.02616 -1.365167,1.262188 -3.091849,2.746718 -1.726681,1.48453 -4.373643,3.766853 -5.882138,5.071829 l -2.742717,2.372683 -0.88953,-0.01219 c -0.489241,-0.0067 -6.326781,-0.530897 -12.972311,-1.164874 z"
     id="path45" /><path
     style="fill:#818286;fill-opacity:1;stroke:#6d6e72;stroke-width:0.148255;stroke-linecap:round;stroke-linejoin:round;stroke-dasharray:none;stroke-opacity:1;paint-order:markers fill stroke"
     d="m 68.872212,74.130393 c -7.645906,-2.026472 -10.111698,-2.7324 -9.784828,-2.801283 0.240345,-0.05065 4.740093,-0.79282 9.999438,-1.649268 5.259346,-0.856448 9.745912,-1.595723 9.970148,-1.642835 l 0.407701,-0.08566 v 4.45943 c 0,3.476872 -0.04083,4.456055 -0.185319,4.444117 -0.101925,-0.0084 -4.785139,-1.234448 -10.40714,-2.724504 z"
     id="path46" /><path
     style="fill:#818286;fill-opacity:1;stroke:#6d6e72;stroke-width:0.148255;stroke-linecap:round;stroke-linejoin:round;stroke-dasharray:none;stroke-opacity:1;paint-order:markers fill stroke"
     d="m 75.313531,90.286908 c 0,-0.223075 4.941635,-11.63764 5.03821,-11.63764 0.05993,0 1.359037,1.217544 2.886903,2.705654 l 2.777938,2.705653 -5.148537,3.039227 c -2.831696,1.671575 -5.239882,3.092579 -5.351526,3.157786 -0.111643,0.06521 -0.202988,0.0784 -0.202988,0.02932 z"
     id="path47" /><path
     style="fill:#818286;fill-opacity:1;stroke:#6d6e72;stroke-width:0.148255;stroke-linecap:round;stroke-linejoin:round;stroke-dasharray:none;stroke-opacity:1;paint-order:markers fill stroke"
     d="m 83.504238,96.032165 c 0.477716,-1.739158 3.473667,-11.007932 3.5581,-11.007932 0.106662,0 9.073112,6.114927 9.365255,6.386903 0.08059,0.07503 0.0504,0.156566 -0.07413,0.200175 -0.11556,0.04047 -3.032494,1.110092 -6.482075,2.37694 -3.449581,1.266848 -6.309417,2.30336 -6.355192,2.30336 -0.04577,0 -0.05116,-0.11675 -0.01196,-0.259446 z"
     id="path48" /><path
     style="fill:#a8a9ad;fill-opacity:1;stroke:#6d6e72;stroke-width:0.148255;stroke-linecap:round;stroke-linejoin:round;stroke-dasharray:none;stroke-opacity:1;paint-order:markers fill stroke"
     d="m 62.497332,90.533384 c 0.32184,-0.231576 2.052888,-1.459545 3.846773,-2.72882 1.793885,-1.269274 5.329766,-3.773291 7.857514,-5.564481 2.527747,-1.791189 4.61406,-3.241453 4.636249,-3.222807 0.02219,0.01865 -1.106715,2.712134 -2.508677,5.985529 l -2.549022,5.951627 h -5.934 -5.933999 z"
     id="path49" /><path
     style="fill:#a8a9ad;fill-opacity:1;stroke:#6d6e72;stroke-width:0.148255;stroke-linecap:round;stroke-linejoin:round;stroke-dasharray:none;stroke-opacity:1;paint-order:markers fill stroke"
     d="m 95.920974,54.424078 c 0,-0.0328 1.65119,-1.480288 3.669311,-3.216649 2.018125,-1.736362 5.320505,-4.581878 7.338625,-6.323369 l 3.66931,-3.166348 v 4.897623 4.897622 l -0.33358,0.07871 c -0.47197,0.111366 -14.20156,2.892038 -14.279462,2.892038 -0.03531,0 -0.0642,-0.02683 -0.0642,-0.05963 z"
     id="path50" /><path
     style="fill:#a8a9ad;fill-opacity:1;stroke:#6d6e72;stroke-width:0.148255;stroke-linecap:round;stroke-linejoin:round;stroke-dasharray:none;stroke-opacity:1;paint-order:markers fill stroke"
     d="m 56.040384,74.449717 v -2.568746 l 9.451255,2.488276 c 5.19819,1.368552 9.551327,2.516749 9.673637,2.551548 0.122311,0.0348 -4.130754,0.07101 -9.451255,0.08047 l -9.673637,0.0172 z"
     id="path51" /><path
     style="fill:#a8a9ad;fill-opacity:1;stroke:#6d6e72;stroke-width:0.148255;stroke-linecap:round;stroke-linejoin:round;stroke-dasharray:none;stroke-opacity:1;paint-order:markers fill stroke"
     d="m 50.999703,90.798133 c -0.752188,-3.021413 -1.338957,-5.522136 -1.303931,-5.557162 0.03503,-0.03503 1.393499,0.776996 3.018829,1.804492 1.62533,1.027496 3.80727,2.405899 4.848755,3.063118 1.041486,0.65722 1.842063,1.242071 1.77906,1.299669 -0.186317,0.170335 -6.869333,4.883361 -6.92455,4.883361 -0.0278,0 -0.665976,-2.472065 -1.418163,-5.493478 z"
     id="path52" /><path
     style="fill:#a8a9ad;fill-opacity:1;stroke:#6d6e72;stroke-width:0.148255;stroke-linecap:round;stroke-linejoin:round;stroke-dasharray:none;stroke-opacity:1;paint-order:markers fill stroke"
     d="m 38.991061,94.652057 c 0,-1.146376 0.05004,-2.053973 0.111191,-2.016883 0.06115,0.03709 2.27942,0.948422 4.929478,2.02518 2.650058,1.076759 4.846085,1.984356 4.88006,2.016883 0.03397,0.03253 -2.18429,0.05914 -4.929478,0.05914 h -4.991251 z"
     id="path53" /><path
     style="fill:#a8a9ad;fill-opacity:1;stroke:#6d6e72;stroke-width:0.148255;stroke-linecap:round;stroke-linejoin:round;stroke-dasharray:none;stroke-opacity:1;paint-order:markers fill stroke"
     d="m 48.479379,53.594176 c 0,-5.707817 0.05004,-10.377435 0.111192,-10.37693 0.151747,0.0013 0.974467,0.239865 19.19902,5.568224 0.958098,0.280121 2.525894,0.737754 3.483992,1.016961 0.958098,0.279207 4.177084,1.219807 7.153303,2.090223 7.843338,2.293839 8.1901,2.394828 10.266658,2.990001 1.039638,0.297976 1.890251,0.581813 1.890251,0.630749 0,0.123373 -41.026849,8.462746 -41.622587,8.460465 l -0.481829,-0.0018 z"
     id="path54" /><path
     style="fill:#a8a9ad;fill-opacity:1;stroke:#6d6e72;stroke-width:0.148255;stroke-linecap:round;stroke-linejoin:round;stroke-dasharray:none;stroke-opacity:1;paint-order:markers fill stroke"
     d="m 38.281311,59.561439 c 1.553765,-2.507362 3.340952,-5.392775 3.971526,-6.412028 0.630574,-1.019253 2.056006,-3.315644 3.167628,-5.103091 l 2.02113,-3.249904 v 9.661932 9.661932 h -5.992656 -5.992657 z"
     id="path55" /><path
     style="fill:#bdbec0;fill-opacity:1;stroke:#6d6e72;stroke-width:0.148255;stroke-linecap:round;stroke-linejoin:round;stroke-dasharray:none;stroke-opacity:1;paint-order:markers fill stroke"
     d="m 60.713571,90.192967 c -0.04104,-0.111206 -1.030791,-2.870782 -2.199449,-6.132392 l -2.124831,-5.930199 5.374164,-0.03888 c 2.955791,-0.02138 7.840329,-0.02138 10.854531,0 l 5.480365,0.03888 -8.363241,5.930199 c -4.599783,3.26161 -8.49457,6.021186 -8.655082,6.132392 -0.246462,0.170752 -0.303443,0.170752 -0.366457,0 z"
     id="path56" /><path
     style="fill:#bdbec0;fill-opacity:1;stroke:#6d6e72;stroke-width:0.148255;stroke-linecap:round;stroke-linejoin:round;stroke-dasharray:none;stroke-opacity:1;paint-order:markers fill stroke"
     d="m 36.300469,63.045431 c 1.38937,-2.26723 10.609297,-17.116097 10.790819,-17.37882 0.171526,-0.248253 0.202052,1.112436 0.202052,9.00649 v 9.298924 h -5.780346 -5.780347 z"
     id="path57" /><path
     style="fill:#bdbec0;fill-opacity:1;stroke:#6d6e72;stroke-width:0.148255;stroke-linecap:round;stroke-linejoin:round;stroke-dasharray:none;stroke-opacity:1;paint-order:markers fill stroke"
     d="m 54.706089,87.003158 c -2.486978,-1.589044 -4.621849,-2.948302 -4.74416,-3.020572 -0.17438,-0.103037 0.360904,-0.71598 2.479819,-2.83959 1.739059,-1.742913 2.752877,-2.656759 2.844378,-2.563895 0.0782,0.07936 0.954372,2.412596 1.947055,5.184964 0.992683,2.772369 1.894661,5.29085 2.004396,5.596626 0.109735,0.305776 0.152442,0.550485 0.0949,0.543797 -0.05754,-0.0067 -2.139414,-1.312286 -4.626391,-2.90133 z"
     id="path58" /><path
     style="fill:#e6e7e9;fill-opacity:1;stroke:#6d6e72;stroke-width:0.148255;stroke-linecap:round;stroke-linejoin:round;stroke-dasharray:none;stroke-opacity:1;paint-order:markers fill stroke"
     d="m 16.692289,48.840367 c -2.101884,-2.942196 -3.79288,-5.378173 -3.75777,-5.413283 0.03511,-0.03511 7.251492,-0.04686 16.036404,-0.02611 l 15.972566,0.03773 -7.68331,3.400498 c -4.22582,1.870274 -9.604376,4.251788 -11.952346,5.292254 -2.34797,1.040465 -4.387139,1.929239 -4.531487,1.975053 -0.20911,0.06637 -1.039159,-1.003931 -4.084057,-5.266148 z"
     id="path59" /><path
     style="fill:#e6e7e9;fill-opacity:1;stroke:#6d6e72;stroke-width:0.148255;stroke-linecap:round;stroke-linejoin:round;stroke-dasharray:none;stroke-opacity:1;paint-order:markers fill stroke"
     d="M 89.471882,53.97264 C 74.571314,49.605801 48.602367,42.030288 48.533362,42.030288 c -0.02969,0 -0.05398,-0.266859 -0.05398,-0.59302 v -0.59302 H 79.19993 c 25.78813,0 30.6857,0.03211 30.50346,0.200007 -0.1194,0.110004 -1.68481,1.458756 -3.47869,2.997226 -3.03854,2.605903 -5.13589,4.409913 -10.638333,9.150405 -1.203288,1.036662 -2.237366,1.880818 -2.297952,1.875902 -0.06059,-0.0049 -1.778027,-0.497733 -3.816533,-1.095148 z"
     id="path60" /><path
     style="fill:#e6e7e9;fill-opacity:1;stroke:#6d6e72;stroke-width:0.148255;stroke-linecap:round;stroke-linejoin:round;stroke-dasharray:none;stroke-opacity:1;paint-order:markers fill stroke"
     d="m 48.627634,95.340441 c -1.263873,-0.517714 -3.820691,-1.559418 -5.681816,-2.314898 -3.226332,-1.309654 -3.371271,-1.385461 -3.113355,-1.628368 0.228784,-0.21547 1.842506,-1.443532 7.757387,-5.903467 l 0.815402,-0.614829 1.364383,5.521047 c 1.414359,5.723274 1.451307,5.894925 1.267143,5.886749 -0.06115,-0.0027 -1.14527,-0.428521 -2.409144,-0.946234 z"
     id="path61" /><path
     style="fill:#d2d3d5;fill-opacity:1;stroke:#6d6e72;stroke-width:0.148255;stroke-linecap:round;stroke-linejoin:round;stroke-dasharray:none;stroke-opacity:1;paint-order:markers fill stroke"
     d="m 31.20285,61.581202 c -1.709692,-1.151356 -4.602366,-3.092894 -6.428166,-4.314529 l -3.319634,-2.221156 3.097252,-1.370675 c 1.703489,-0.753871 6.232845,-2.758065 10.065237,-4.453764 3.832391,-1.695699 8.067217,-3.569676 9.410725,-4.164393 1.343509,-0.594718 2.467197,-1.05685 2.497087,-1.02696 0.06027,0.06027 -11.758757,19.16573 -12.038345,19.460001 -0.138508,0.145781 -0.832602,-0.257578 -3.284156,-1.908524 z"
     id="path62" /></svg>
